<svg version="1" xmlns="http://www.w3.org/2000/svg" width="533.333" height="533.333" viewBox="0 0 400.000000 400.000000"><path d="M184.2 20.7c-4.2 4.5-8 7.9-8.6 7.6-.5-.4-.6-.1-.2.6.5.8-.5 2.5-2.5 4.5l-3.4 3.3H117l-3.8 4c-4.1 4.5-13.4 15-17.9 20.1l-2.9 3.4-10.5.2c-5.7.1-11.2-.2-12.1-.6-1-.5-1.8-.5-1.8-.1 0 .7-7.8.9-10.5.3-.5-.1-1.2-.1-1.5 0-1.5.6-10.3.4-10.7-.3-.2-.4-1.3-.2-2.4.3-1 .6-1.9.8-1.9.4 0-.7-3.1 2.4-9.4 9.6-3.6 4.2-9 10-22.4 24.5-3 3.2-5.1 6.3-4.8 7.1.3.7.1 1.6-.5 1.9-.5.4-.7 1.1-.3 1.6.5.9.9 33.1.4 35.4-.1.5-.2 1.4-.1 2 .7 3.3.2 47.5-.4 48.5-.5.9-.4 1.1.3.6.9-.5.9 0 .3 1.7-.6 1.4-.7 2.8-.4 3.1.8.8.8 30-.1 31.4-.3.6-.3 1.3.1 1.5.9.6.8 12.1-.1 13.6-.4.5-.2 1.2.3 1.6.7.4.7 1.5.1 3s-.6 2.5 0 2.5c.5 0 .5 1.2 0 3s-.5 3.2.1 3.5c.5.4.5 1.3-.1 2.4-.5 1-.7 2.1-.3 2.4.7.7.8 38.1.1 39.3-.3.5-.2 1.8.2 2.9.4 1.1.4 3-.1 4.2-.5 1.3-.4 2.5.1 2.8.5.3.6 1.6.2 2.8-.9 2.5-.9 3.8 0 5.2.3.6.3 2.9-.2 5.2-.4 2.3-.5 4.5-.2 4.8.5.4.6 7.1.2 7.7-.6 1-.4 6.1.3 6.5.5.3.3.9-.4 1.4-1 .6-1 .9-.2.9.9 0 1 .7.3 2.4-.5 1.3-.6 2.6-.3 2.9.5.6.6 6.6.1 12.9-.2 2.1 0 3.9.4 4 .4.2.4 1.6-.1 3.3-.4 1.7-.4 4.2.1 5.7.9 2.4 1.3 2.6 5.8 2.2 4.4-.4 4.9-.2 4.4 1.3s-.4 1.5.5.3c.8-1.1 3.6-1.5 12.5-1.6 6.3 0 11.3.3 11 .8-.3.4-1 .5-1.6.2-.7-.4-.8-.2-.4.5.6.9 1.1.9 2.3-.1 1.8-1.4 24.6-2.1 23.7-.6-.3.4-1 .5-1.6.2-.7-.4-.8-.2-.4.5.6.9 1.1.9 2.3-.1 1.8-1.4 24.6-2.1 23.7-.6-.3.4-1 .5-1.6.2-.7-.4-.8-.2-.4.5.6.9 1.1.9 2.3-.1 1.8-1.4 24.6-2.1 23.7-.6-.3.4-1 .5-1.6.2-.7-.4-.8-.2-.4.5.6.9 1.1.9 2.3-.1 1.8-1.5 36.6-2.1 35.7-.6-.3.5-1 .5-1.6.2-.7-.4-.8-.2-.4.5.6.9 1.1.9 2.3 0 1.6-1.4 12.6-2.2 11.8-.9-.3.5-.1 1.2.5 1.5.6.4.9.1.8-.5-.2-.8 1.6-1.4 5.5-1.6 3.5-.2 5.5.1 5.2.7-.4.5-1.1.6-1.7.3-.7-.4-.8-.2-.4.5.6.9 1.1.9 2.3 0 1.6-1.4 12.6-2.2 11.8-.9-.3.5-.1 1.2.5 1.5.6.4.9.1.8-.5-.2-.8 1.6-1.4 5.5-1.6 3.5-.2 5.5.1 5.2.7-.4.5-1.1.6-1.7.3-.7-.4-.8-.2-.4.5.6.9 1.1.9 2.3 0 1.6-1.4 12.6-2.2 11.8-.9-.3.5-.1 1.2.5 1.5.6.4.9.1.8-.5-.2-.8 1.6-1.4 5.5-1.6 3.5-.2 5.5.1 5.2.7-.4.5-1.1.6-1.7.3-.7-.4-.8-.2-.4.5.6.9 1.1.9 2.3 0 1.6-1.4 12.6-2.2 11.8-.9-.3.5-.1 1.2.5 1.5.6.4.9.1.8-.5-.2-.8 1.6-1.4 5.5-1.6 3.5-.2 5.5.1 5.2.7-.4.5-1.1.6-1.7.3-.7-.5-.8-.2-.4.5.6.9 1.2.9 2.4-.2 1-.8 2.4-1.2 3.2-1 .9.3 1.1.1.5-.4-1.1-.9-1.8-8.6-.6-7.9.4.3 1.3 0 2.1-.5 1.2-.8 1.1-.9-.4-.7-1.5.2-2-.4-2.2-3.2-.2-1.9.3-4.1.9-4.9.7-.8.8-1.2.2-.9-.6.4-1-.8-1-2.8 0-1.9.6-3.6 1.4-3.9.9-.4 1.1 0 .7 1.2-.6 1.4-.4 1.5.5.6 1.4-1.4.3-3.4-1.6-2.6-.8.3-1.5.1-1.5-.5 0-.7 12.7-1.1 37.7-1.2 20.7 0 38-.3 38.4-.6.4-.2.7-1.7.5-3.2-.1-1.5.2-3.3.7-4 .5-.6.6-1.2.1-1.2s-.9-2-.9-4.5.3-4.5.6-4.5c.8 0 .5-3.2-.4-4.7-.5-.8 2.7-1.1 11-1.2 6.4-.1 12-.4 12.4-.7.4-.2 1.2.3 1.7 1.2.8 1.5 1 1.5 1.5-.1.4-.9 1.2-1.3 1.7-1 1.3.8 41.8.7 43.1-.1.5-.3 1.2.2 1.5 1 .3.9 1 1.6 1.6 1.6.5 0 .6-.5.3-1-.4-.6-.2-1.7.5-2.5.7-.9.8-1.5 0-2-.5-.3-1-1.5-1-2.6 0-1.4.4-1.8 1.3-1.3.9.6.9.5 0-.7-1-1.2-1-1.8 0-2.9.9-1 .9-1.1 0-.6-.8.5-1.3.1-1.3-.9s.5-1.3 1.2-.9c.7.5.8.3.2-.7-1.2-1.9-1.2-20.9 0-20.2.5.4.6.1.1-.8-1.4-2.1-1.7-11.1-.4-10.3.7.4.6-.2-.1-1.6-1.1-2.1-1-2.2.6-1.6 1.7.5 1.7.4.4-.6-1.3-1.1-1.6-4.8-1.6-24.5 0-15.7.4-23 1.1-22.5.6.4.6.1-.1-.9-.8-1-1-33.7-1-111.1l.1-109.8-3-.1c-1.6 0-47.7-.2-102.3-.2l-99.3-.2-7.7 8.2z"/><path d="M397.9 256.7c-1.3 1.6-1.2 1.7.4.4.9-.7 1.7-1.5 1.7-1.7 0-.8-.8-.3-2.1 1.3zM323.6 335.3c.3 1 .9 1.5 1.2 1.2.3-.3 0-1.1-.7-1.8-1-.9-1.1-.8-.5.6zM347.5 334.9c-.3.5-.2 1.2.3 1.5.5.3.9-.1.9-.9 0-1.7-.3-1.9-1.2-.6zM337.5 336c-.3.5-.1 1 .4 1 .6 0 1.1-.5 1.1-1 0-.6-.2-1-.4-1-.3 0-.8.4-1.1 1zM395 335.4c0 .2.7.7 1.6 1 .8.3 1.2.2.9-.4-.6-1-2.5-1.4-2.5-.6zM323.5 356c-.3.5-.1 1 .4 1 .6 0 1.1-.5 1.1-1 0-.6-.2-1-.4-1-.3 0-.8.4-1.1 1zM251.9 360.7c-1.3 1.6-1.2 1.7.4.4 1.6-1.3 2.1-2.1 1.3-2.1-.2 0-1 .8-1.7 1.7zM279 360.1c0 .5.5.7 1 .4.6-.3 1-.8 1-1.1 0-.2-.4-.4-1-.4-.5 0-1 .5-1 1.1zM303 360.1c0 .5.5.7 1 .4.6-.3 1-.8 1-1.1 0-.2-.4-.4-1-.4-.5 0-1 .5-1 1.1zM319.5 359.9c-.3.5-.2 1.2.3 1.5.5.3.9-.1.9-.9 0-1.7-.3-1.9-1.2-.6zM247.2 362.2c.2.6 1 1.3 1.6 1.4.7.1.8 0 .2-.3-.5-.2-.8-.9-.4-1.4.3-.5 0-.9-.6-.9-.7 0-1 .5-.8 1.2zM1 374c0 .5.5 1 1.1 1 .5 0 .7-.5.4-1-.3-.6-.8-1-1.1-1-.2 0-.4.4-.4 1zM132.6 384.2c.3.5 1 .6 1.5.3 1.3-.9 1.1-1.2-.6-1.2-.8 0-1.2.4-.9.9zM3.3 385.7c.4.3.1 1.3-.6 2.2-1.1 1.4-1 1.4.5.2 1.6-1.2 1.6-3.1.1-3.1-.4 0-.3.3 0 .7zM7 386.4c0 .2.8 1 1.8 1.7 1.5 1.3 1.6 1.2.3-.4S7 385.6 7 386.4zM22.9 387.7c-1.3 1.6-1.2 1.7.4.4.9-.7 1.7-1.5 1.7-1.7 0-.8-.8-.3-2.1 1.3zM27 386.4c0 .2.8 1 1.8 1.7 1.5 1.3 1.6 1.2.3-.4s-2.1-2.1-2.1-1.3zM46.9 387.7c-1.3 1.6-1.2 1.7.4.4 1.6-1.3 2.1-2.1 1.3-2.1-.2 0-1 .8-1.7 1.7zM51 386.4c0 .2.8 1 1.8 1.7 1.5 1.3 1.6 1.2.3-.4s-2.1-2.1-2.1-1.3zM70.9 387.7c-1.3 1.6-1.2 1.7.4.4 1.6-1.3 2.1-2.1 1.3-2.1-.2 0-1 .8-1.7 1.7zM75 386.4c0 .2.8 1 1.8 1.7 1.5 1.3 1.6 1.2.3-.4s-2.1-2.1-2.1-1.3zM94.9 387.7c-1.3 1.6-1.2 1.7.4.4 1.6-1.3 2.1-2.1 1.3-2.1-.2 0-1 .8-1.7 1.7zM99 386.4c0 .2.8 1 1.8 1.7 1.5 1.3 1.6 1.2.3-.4s-2.1-2.1-2.1-1.3zM118.9 387.7c-1.3 1.6-1.2 1.7.4.4 1.6-1.3 2.1-2.1 1.3-2.1-.2 0-1 .8-1.7 1.7zM123 386.4c0 .2.8 1 1.8 1.7 1.5 1.3 1.6 1.2.3-.4s-2.1-2.1-2.1-1.3zM150.9 387.7c-1.3 1.6-1.2 1.7.4.4 1.6-1.3 2.1-2.1 1.3-2.1-.2 0-1 .8-1.7 1.7zM155 386.4c0 .2.8 1 1.8 1.7 1.5 1.3 1.6 1.2.3-.4s-2.1-2.1-2.1-1.3zM174.9 387.7c-1.3 1.6-1.2 1.7.4.4 1.6-1.3 2.1-2.1 1.3-2.1-.2 0-1 .8-1.7 1.7zM179 386.4c0 .2.8 1 1.8 1.7 1.5 1.3 1.6 1.2.3-.4s-2.1-2.1-2.1-1.3zM198.9 387.7c-1.3 1.6-1.2 1.7.4.4 1.6-1.3 2.1-2.1 1.3-2.1-.2 0-1 .8-1.7 1.7zM203 386.4c0 .2.8 1 1.8 1.7 1.5 1.3 1.6 1.2.3-.4s-2.1-2.1-2.1-1.3zM222.9 387.7c-1.3 1.6-1.2 1.7.4.4.9-.7 1.7-1.5 1.7-1.7 0-.8-.8-.3-2.1 1.3zM227 386.4c0 .2.8 1 1.8 1.7 1.5 1.3 1.6 1.2.3-.4s-2.1-2.1-2.1-1.3z"/></svg>